<svg xmlns="http://www.w3.org/2000/svg" width="96px" height="96px" viewBox="0 0 96 96">
<path fill="#F8485E" d="M73.49,76.99L59.47,54.56l9.36-15.51c1.19-1.92,2.17-3.94,2.89-6.01c3.17-9,0.46-19.21-6.74-25.39l-0.17-0.14
C60.12,2.78,54.23,0.2,48,0.2c-5.31,0-10.99,2.37-15.72,6.44l0-0.01L31.1,7.67c-5.55,4.93-10,14.09-7.43,23.44
c0.76,2.76,1.93,5.44,3.48,7.94l9.36,15.51L22.51,76.99l11.88,19.13L48,73.57L61.6,96.11L73.49,76.99z M34.36,92.29l-9.5-15.29
l12.81-20.51l9.15,15.16L34.36,92.29z M38.41,21.35c2.85-1.47,5.98-2.25,9.12-2.25c3.35,0,6.64,0.86,9.59,2.5l-9.17,14.67
C46.03,33.47,41.33,26.52,38.41,21.35z M69.83,32.38L69.83,32.38c-0.68,1.94-1.59,3.83-2.71,5.63l-8.84,14.65L49.17,38.1
l11.38-18.21c1.9-3.04,3.42-7.2,4.19-9.5c0.04,0.05,0.08,0.09,0.12,0.14l0.12-0.11C70.56,16.13,72.52,24.73,69.83,32.38z
M63.19,8.71c-0.53,1.69-2.21,6.74-4.32,10.11l-0.68,1.08c-3.27-1.83-6.93-2.8-10.65-2.8c-3.48,0-6.94,0.87-10.08,2.49
c-0.22-0.42-0.42-0.83-0.6-1.21c-2.2-4.64-3.48-8.28-3.93-9.66C37.43,4.61,42.92,2.2,48,2.2C53.59,2.2,58.91,4.5,63.19,8.71z
M25.6,30.58c-2.13-7.73,1.04-15.34,5.45-20.06l0.04,0.04c0.08-0.09,0.16-0.17,0.24-0.26c0.63,1.8,1.83,5,3.71,8.95
c3,6.31,11.76,18.89,12.1,19.38l23.99,38.37l-9.51,15.29L28.86,38C27.41,35.65,26.31,33.15,25.6,30.58z"/>
</svg>
