<svg xmlns="http://www.w3.org/2000/svg" width="96px" height="96px" viewBox="0 0 96 96">
<path fill="#F8485E" d="M90.68,0c-0.13,0-0.25,0.03-0.36,0.07c-0.02-0.01-0.04-0.01-0.05-0.01C90.17,0.03,90.07,0,89.97,0
c0,0-0.01,0-0.01,0H70.99c-0.55,0-1,0.45-1,1s0.45,1,1,1h16.49L70.3,18.56c-0.11,0.11-0.18,0.23-0.23,0.36
c-4.29-3.65-9.85-5.87-15.92-5.87c-8.37,0-15.76,4.2-20.21,10.6c-1.15-0.16-2.33-0.24-3.52-0.24c-14.38,0-26.09,11.7-26.09,26.08
c0,14.06,11.18,25.54,25.11,26.06v12.52h-8.07c-0.55,0-1,0.45-1,1s0.45,1,1,1h8.07V95c0,0.55,0.45,1,1,1s1-0.45,1-1v-4.92h8.03
c0.55,0,1-0.45,1-1s-0.45-1-1-1h-8.03V75.56c9.33-0.36,17.41-5.64,21.73-13.31c0.33,0.01,0.66,0.03,0.99,0.03
c13.57,0,24.6-11.04,24.6-24.6c0-6.84-2.81-13.03-7.32-17.5c0.09-0.04,0.18-0.09,0.26-0.17L89.68,2.66v17.31c0,0.55,0.45,1,1,1
s1-0.45,1-1V1C91.68,0.45,91.23,0,90.68,0z M30.41,73.59c-13.28,0-24.09-10.81-24.09-24.09c0-13.28,10.8-24.08,24.09-24.08
c0.79,0,1.57,0.04,2.34,0.12c-2.04,3.58-3.21,7.72-3.21,12.14c0,12.49,9.35,22.82,21.41,24.39C46.71,68.97,39.09,73.59,30.41,73.59z
M52,60.17c-11.46-1.09-20.46-10.76-20.46-22.5c0-4.33,1.23-8.38,3.35-11.83C46.04,27.95,54.5,37.75,54.5,49.5
C54.5,53.33,53.59,56.95,52,60.17z M76.75,37.67c0,12.46-10.13,22.6-22.59,22.6c1.5-3.29,2.34-6.93,2.34-10.77
c0-12.42-8.73-22.84-20.38-25.45c4.13-5.46,10.67-8.99,18.03-8.99C66.61,15.06,76.75,25.2,76.75,37.67z"/>
</svg>
